# xmcd
#
# Track frame offsets:
#  150
#  20905
#  39311
#  50384
#  59632
#  70816
#  78660
#  92961
#  110996
#  129006
#  143513
#  165872
#  181020
#  200946
#  211507
#  223933
#  238154
#  259014
#  275844
#  291633
#
# Disc length: 4098 seconds
#
# Revision: 0
# Processed by: cddbd v1.5.1PL2 Copyright (c) Steve Scherf et al.
# Submitted via: Collectorz.com_Music_Collector 6.9
#
DISCID=39100014
DTITLE=Various Artist - Resophonic Players Of Europe 2005
DYEAR=2005
DGENRE=Blues -  Blues Guitar
TTITLE0=Hans Theessink - Train
TTITLE1=Papa George - Moonshadows On Coconut Grove
TTITLE2=Bottleneck John - We Can Never Tell
TTITLE3=Claus Boesser Ferrari - Polar
TTITLE4=Lubos Bena - One Kind Favor
TTITLE5=Michel Lelong - Do Something
TTITLE6=Slidin' Slim - Six O'clock In The Morning
TTITLE7=Jawbone John Crabb - Bob Dayfield - Michel Lelong - Winin Boy
TTITLE8=Azzedeen - Le Lezard Bleu
TTITLE9=Chris Wright - Boogie Woogie Dance
TTITLE10=Dr. Werner Willie Willms - Bop Till You Drop - Tired Of Paying Dues
TTITLE11=Alex Guitar - Cypress Grove
TTITLE12=Andres Roots - Bullfrog Brown - I'll See You, Mr Blues
TTITLE13=Diamond Dac Charnley - Trouble In Mind
TTITLE14=Tore Rooster Ruus - Bullmoose
TTITLE15=Franz Badinsky and Rudi and Mudpack - Back On The Road
TTITLE16=Jakub Korinek - Mezzanin
TTITLE17=Lutz Sauer - Kaffehaus Blues Projekt - Der Blues Mit Dem Blues
TTITLE18=Daniel Eriksen - Devil's Game
TTITLE19=Tokio Uchida - Tight Match
EXTD=
EXTT0=
EXTT1=
EXTT2=
EXTT3=
EXTT4=
EXTT5=
EXTT6=
EXTT7=
EXTT8=
EXTT9=
EXTT10=
EXTT11=
EXTT12=
EXTT13=
EXTT14=
EXTT15=
EXTT16=
EXTT17=
EXTT18=
EXTT19=
PLAYORDER=
